<svg id="tails" xmlns="http://www.w3.org/2000/svg" viewBox="0 0 200 200"><defs><style>.cls-1{fill:#1d1d1b}</style></defs><path class="cls-1" d="M297.64 520.94a100 100 0 1 1 100-100 100.11 100.11 0 0 1-100 100Zm0-197a97 97 0 1 0 96.94 97 97.1 97.1 0 0 0-96.94-97.04Z" transform="translate(-197.64 -320.94)"/><path class="cls-1" d="M297.64 503.44a82.5 82.5 0 1 1 82.5-82.5 82.59 82.59 0 0 1-82.5 82.5Zm0-162.14a79.65 79.65 0 1 0 79.55 79.64 79.69 79.69 0 0 0-79.55-79.64Z" transform="translate(-197.64 -320.94)"/><path class="cls-1" d="M316.64 484.52h-33.95a6.35 6.35 0 0 1-6.32-6.22l-.07-4.93a6.34 6.34 0 0 1 3.46-5.73l3.81-1.93-.25-67.38-5.58 1a6.32 6.32 0 0 1-7.42-6.22v-4.57a5 5 0 0 1 2.8-4.52 75.2 75.2 0 0 0 28-24 6.31 6.31 0 0 1 5.15-2.66h5.14a6.32 6.32 0 0 1 6.31 6.31v103.5l1.95 1.05a6.3 6.3 0 0 1 3.32 5.56v4.42a6.32 6.32 0 0 1-6.35 6.32Zm-30.33-89.77.26 71.54a2 2 0 0 1-1.12 1.83l-4.34 2.2a3.34 3.34 0 0 0-1.81 3l.07 4.93a3.33 3.33 0 0 0 3.32 3.26h33.95a3.31 3.31 0 0 0 3.31-3.31v-4.42a3.3 3.3 0 0 0-1.74-2.92l-3.53-1.9V363.68a3.32 3.32 0 0 0-3.31-3.31h-5.14a3.32 3.32 0 0 0-2.7 1.39 78.41 78.41 0 0 1-29.07 24.94 2 2 0 0 0-1.14 1.83v4.57a3.31 3.31 0 0 0 3.89 3.26Z" transform="translate(-197.64 -320.94)"/></svg>