<svg id="heads" xmlns="http://www.w3.org/2000/svg" viewBox="0 0 200 200"><defs><style>.cls-1{fill:#1d1d1b}</style></defs><path class="cls-1" d="M297.64 520.94a100 100 0 1 1 100-100 100.11 100.11 0 0 1-100 100Zm0-197a97 97 0 1 0 96.94 97 97.1 97.1 0 0 0-96.94-97.04Z" transform="translate(-197.64 -320.94)"/><path class="cls-1" d="M297.64 503.44a82.5 82.5 0 1 1 82.5-82.5 82.59 82.59 0 0 1-82.5 82.5Zm0-162.14a79.65 79.65 0 1 0 79.55 79.64 79.69 79.69 0 0 0-79.55-79.64Z" transform="translate(-197.64 -320.94)"/><path class="cls-1" d="M280.41 368.36a4.39 4.39 0 0 1 1.39.22l7.76 2.64.48.16.5-.09 7.82-1.36h.16a.86.86 0 0 1 .41.1l13.87 7.06a4.43 4.43 0 0 0 2 .48h.4l11-1-5.07 1.77-2.61.92 1.69 2.19 1.32 1.72a4 4 0 0 0 3.1 1.56l3.31.05-.93.15-2.15.34.52 2.11.62 2.62a4.06 4.06 0 0 0 3.1 3l4.77 1-4-.08h-2.14l.11 2.15.11 2.09a4.48 4.48 0 0 0 2.71 3.87l4 1.7-3.9-.9-2.32-.54-.12 2.38-.23 4.17a4.18 4.18 0 0 0 1.87 3.68l3.1 2-3.07-1.2-2-.79-.61 2.09-3.84 13a4.48 4.48 0 0 0-.09 2.12l9.19 43.81-69.21-.55 9.1-26.8 24.74-9.25a4.49 4.49 0 0 0 2.74-2.88l4.29-13.55.3-1-.6-.82-.6-.82h-2.15l-.58 1-7.19 11.77a.26.26 0 0 1-.14.11l-31.55 11.54-12.72 4.46a.16.16 0 0 1-.1 0 .29.29 0 0 1-.26-.17l-4.25-9.21a.29.29 0 0 1 .06-.34l1.4-1.34.68-.66-.08-1-.05-.67a2 2 0 0 0 1.16.35 2.07 2.07 0 0 0 2.05-1.74l.52-3.25 1.65 2.37a2.05 2.05 0 0 0 1.7.89 2.08 2.08 0 0 0 2-1.65l.81-3.92 2.2 3.31a2.08 2.08 0 0 0 3.76-.73l.68-3.3 3 2.81a2.07 2.07 0 0 0 3.48-1.32l.27-2.76.88 1.14a2.06 2.06 0 0 0 1.64.8h.38l.33-.12 8.58-3.12a2.07 2.07 0 0 0 1.36-1.83l.47-8.5a2.06 2.06 0 0 0-.52-1.5l-3.07-3.44a2.08 2.08 0 0 0-3.12 0l-1.31 1.52-.08-2.18a2.07 2.07 0 0 0-2.08-2h-.69l-.53.39-1.35 1 .08-.83a3.35 3.35 0 0 0-1.81-3.31l-1.6-.82-.47-.23h-.48a2.07 2.07 0 0 0-1.52.66 3.68 3.68 0 0 0-1.47-2.84l-1.11-.83-.58-.41H261a2.1 2.1 0 0 0-1.57.71 3.37 3.37 0 0 0-1.71-2.36l-.58-.32a2.65 2.65 0 0 0-1.32-.34 2.77 2.77 0 0 0-1.81.67 3.27 3.27 0 0 0-1.88-3l-.44-.2a2.64 2.64 0 0 0-1.17-.27 2.75 2.75 0 0 0-1.8.67l.05-.6.1-1.18-1-.65-2.14-1.39-.53-.34h-.6a2.06 2.06 0 0 0-1.63.79l-.14.18v-.22l.08-.71-.39-.6-1.65-2.49 4.39-12.05 24 1.62.84.06.62-.56 6.79-6a4.28 4.28 0 0 1 2.88-1.09m0-2a6.3 6.3 0 0 0-4.21 1.6l-6.79 6-24.12-1.62h-.12a1.79 1.79 0 0 0-1.67 1.18l-4.79 13.14 2.21 3.39-.76 7.15 4.44-5.66h.06l2.14 1.39-.58 7.06 3.74-4.69a.74.74 0 0 1 .58-.28.71.71 0 0 1 .32.07l.43.21a1.28 1.28 0 0 1 .73 1.32l-.74 6.13 4-4.68a.75.75 0 0 1 .57-.26.8.8 0 0 1 .36.09l.58.32a1.42 1.42 0 0 1 .73 1.34l-.42 6.25 3.87-5.66a.07.07 0 0 1 .06 0l1.11.83a1.69 1.69 0 0 1 .66 1.47l-.5 7 4-5.86a.06.06 0 0 1 .06 0l1.6.82a1.37 1.37 0 0 1 .74 1.34l-.49 5.24 4.93-3.59a.08.08 0 0 1 .08.07l.29 7.25 4.62-5.37a.07.07 0 0 1 .06 0l3.07 3.44a.14.14 0 0 1 0 .06l-.48 8.5a.07.07 0 0 1 0 .06l-8.58 3.12a.09.09 0 0 1-.06 0l-4-5.11-.75 7.77a.08.08 0 0 1-.07.07h-.05l-5.61-5.24-1.4 6.78a.07.07 0 0 1-.07.06.07.07 0 0 1-.06 0l-4.86-7.29-1.78 8.6a.07.07 0 0 1-.07.06.07.07 0 0 1-.06 0l-4.34-6.6-1.31 8.13a.07.07 0 0 1-.07.06.07.07 0 0 1-.06 0l-3.56-4.38.57 6.86-1.4 1.35a2.31 2.31 0 0 0-.49 2.62l4.26 9.21a2.29 2.29 0 0 0 2.07 1.33 2.21 2.21 0 0 0 .76-.13l12.72-4.46L294 432.62a2.3 2.3 0 0 0 1.16-.95l7.19-11.77-4.28 13.54a2.56 2.56 0 0 1-1.54 1.62l-25.63 9.58-9.83 29a1 1 0 0 0 1 1.38l72.12.55a.72.72 0 0 0 .71-.87l-9.51-45.36a2.32 2.32 0 0 1 0-1.14l3.83-13 20.79 8.11-19-12.48a2.15 2.15 0 0 1-1-1.91l.22-4.17 26.22 6.07-25.09-10.65A2.47 2.47 0 0 1 330 398l-.11-2.09 25.17.48-25.55-5.39a2 2 0 0 1-1.57-1.52l-.65-2.65 23.84-3.72-26.5-.46a2 2 0 0 1-1.55-.78l-1.32-1.72 20.41-7.15-27.17 2.55h-.22a2.47 2.47 0 0 1-1.1-.26l-13.87-7.07a3 3 0 0 0-1.31-.31 2.74 2.74 0 0 0-.5 0l-7.82 1.36-7.76-2.63a6.49 6.49 0 0 0-2-.33Z" transform="translate(-197.64 -320.94)"/><path class="cls-1" transform="rotate(-89.25 35.588 399.606)" d="M282.43 458.45h29.08v3h-29.08z"/><path class="cls-1" transform="rotate(-4.31 -4055.584 2923.79)" d="M305.96 439.93h3v35.46h-3z"/><path class="cls-1" transform="rotate(-9.24 -1766.51 1517.394)" d="M316.64 434.85h3v40.38h-3z"/><path class="cls-1" transform="rotate(-6.09 -2806.015 2153.2)" d="M292.01 454.33h34.52v3h-34.52z"/><path class="cls-1" transform="rotate(-6.17 -2766.94 2138.488)" d="M290.38 464.17h38.17v3h-38.17z"/><path class="cls-1" d="M280.65 392.89a5.51 5.51 0 1 1 5.51-5.51 5.51 5.51 0 0 1-5.51 5.51Zm0-8a2.51 2.51 0 1 0 2.51 2.5 2.5 2.5 0 0 0-2.51-2.51Z" transform="translate(-197.64 -320.94)"/><path class="cls-1" transform="rotate(-59.87 -90.63 402.449)" d="M284.35 387.97h5v6.66h-5z"/><path class="cls-1" transform="rotate(-62.24 -80.75 384.245)" d="M280.77 378.54H287v5h-6.23z"/><path class="cls-1" transform="rotate(-63.76 -82.629 382.356)" d="M271.73 380.18h5v7.55h-5z"/><path class="cls-1" transform="rotate(-65.94 -69.208 385.873)" d="M273.39 391.49h7.16v5h-7.16z"/></svg>